<mxfile host="app.diagrams.net" modified="2023-03-22T09:46:52.260Z" agent="5.0 (Windows)" etag="Jkc-qXG2gjrU7WMS5Kmi" version="21.0.6" type="github">
  <diagram id="C5RBs43oDa-KdzZeNtuy" name="Page-1">
    <mxGraphModel dx="1434" dy="782" grid="1" gridSize="10" guides="1" tooltips="1" connect="1" arrows="1" fold="1" page="1" pageScale="1" pageWidth="827" pageHeight="1169" math="0" shadow="0">
      <root>
        <mxCell id="WIyWlLk6GJQsqaUBKTNV-0" />
        <mxCell id="WIyWlLk6GJQsqaUBKTNV-1" parent="WIyWlLk6GJQsqaUBKTNV-0" />
        <mxCell id="E3c4GqRtnnV0ENOAoblB-2" value="" style="edgeStyle=orthogonalEdgeStyle;rounded=0;orthogonalLoop=1;jettySize=auto;html=1;" edge="1" parent="WIyWlLk6GJQsqaUBKTNV-1" source="E3c4GqRtnnV0ENOAoblB-0" target="E3c4GqRtnnV0ENOAoblB-1">
          <mxGeometry relative="1" as="geometry" />
        </mxCell>
        <mxCell id="E3c4GqRtnnV0ENOAoblB-0" value="START" style="ellipse;whiteSpace=wrap;html=1;" vertex="1" parent="WIyWlLk6GJQsqaUBKTNV-1">
          <mxGeometry x="354" y="40" width="120" height="80" as="geometry" />
        </mxCell>
        <mxCell id="E3c4GqRtnnV0ENOAoblB-4" value="" style="edgeStyle=orthogonalEdgeStyle;rounded=0;orthogonalLoop=1;jettySize=auto;html=1;" edge="1" parent="WIyWlLk6GJQsqaUBKTNV-1" source="E3c4GqRtnnV0ENOAoblB-1" target="E3c4GqRtnnV0ENOAoblB-3">
          <mxGeometry relative="1" as="geometry" />
        </mxCell>
        <mxCell id="E3c4GqRtnnV0ENOAoblB-1" value="pobierz a " style="rounded=1;whiteSpace=wrap;html=1;" vertex="1" parent="WIyWlLk6GJQsqaUBKTNV-1">
          <mxGeometry x="354" y="160" width="120" height="60" as="geometry" />
        </mxCell>
        <mxCell id="E3c4GqRtnnV0ENOAoblB-6" value="" style="edgeStyle=orthogonalEdgeStyle;rounded=0;orthogonalLoop=1;jettySize=auto;html=1;entryX=0.5;entryY=0;entryDx=0;entryDy=0;" edge="1" parent="WIyWlLk6GJQsqaUBKTNV-1" source="E3c4GqRtnnV0ENOAoblB-3" target="E3c4GqRtnnV0ENOAoblB-8">
          <mxGeometry relative="1" as="geometry">
            <mxPoint x="610" y="400" as="targetPoint" />
          </mxGeometry>
        </mxCell>
        <mxCell id="E3c4GqRtnnV0ENOAoblB-12" value="" style="edgeStyle=orthogonalEdgeStyle;rounded=0;orthogonalLoop=1;jettySize=auto;html=1;" edge="1" parent="WIyWlLk6GJQsqaUBKTNV-1" source="E3c4GqRtnnV0ENOAoblB-3" target="E3c4GqRtnnV0ENOAoblB-11">
          <mxGeometry relative="1" as="geometry" />
        </mxCell>
        <mxCell id="E3c4GqRtnnV0ENOAoblB-3" value="a % 2 = r.0" style="rhombus;whiteSpace=wrap;html=1;rounded=1;" vertex="1" parent="WIyWlLk6GJQsqaUBKTNV-1">
          <mxGeometry x="374" y="270" width="80" height="80" as="geometry" />
        </mxCell>
        <mxCell id="E3c4GqRtnnV0ENOAoblB-7" value="TAK" style="text;html=1;strokeColor=none;fillColor=none;align=center;verticalAlign=middle;whiteSpace=wrap;rounded=0;" vertex="1" parent="WIyWlLk6GJQsqaUBKTNV-1">
          <mxGeometry x="460" y="270" width="60" height="30" as="geometry" />
        </mxCell>
        <mxCell id="E3c4GqRtnnV0ENOAoblB-8" value="STOP" style="ellipse;whiteSpace=wrap;html=1;" vertex="1" parent="WIyWlLk6GJQsqaUBKTNV-1">
          <mxGeometry x="540" y="400" width="120" height="80" as="geometry" />
        </mxCell>
        <mxCell id="E3c4GqRtnnV0ENOAoblB-9" value="NIE" style="text;html=1;strokeColor=none;fillColor=none;align=center;verticalAlign=middle;whiteSpace=wrap;rounded=0;" vertex="1" parent="WIyWlLk6GJQsqaUBKTNV-1">
          <mxGeometry x="314" y="270" width="60" height="30" as="geometry" />
        </mxCell>
        <mxCell id="E3c4GqRtnnV0ENOAoblB-13" style="edgeStyle=orthogonalEdgeStyle;rounded=0;orthogonalLoop=1;jettySize=auto;html=1;exitX=1;exitY=0.5;exitDx=0;exitDy=0;entryX=0;entryY=0.5;entryDx=0;entryDy=0;" edge="1" parent="WIyWlLk6GJQsqaUBKTNV-1" source="E3c4GqRtnnV0ENOAoblB-11" target="E3c4GqRtnnV0ENOAoblB-8">
          <mxGeometry relative="1" as="geometry" />
        </mxCell>
        <mxCell id="E3c4GqRtnnV0ENOAoblB-11" value="a * 2" style="whiteSpace=wrap;html=1;rounded=1;" vertex="1" parent="WIyWlLk6GJQsqaUBKTNV-1">
          <mxGeometry x="160" y="410" width="120" height="60" as="geometry" />
        </mxCell>
      </root>
    </mxGraphModel>
  </diagram>
</mxfile>
